<?xml version="1.0" standalone="no"?>
<!DOCTYPE svg PUBLIC "-//W3C//DTD SVG 20010904//EN"
 "http://www.w3.org/TR/2001/REC-SVG-20010904/DTD/svg10.dtd">
<svg version="1.0" xmlns="http://www.w3.org/2000/svg"
 width="700.000000pt" height="700.000000pt" viewBox="0 0 700.000000 700.000000"
 preserveAspectRatio="xMidYMid meet">
<metadata>
Created by potrace 1.14, written by Peter Selinger 2001-2017
</metadata>
<g transform="translate(0.000000,700.000000) scale(0.100000,-0.100000)"
fill="#000000" stroke="none">
<path d="M3367 6824 c-1 -1 -50 -5 -108 -8 -59 -4 -117 -9 -130 -11 -13 -3
-48 -8 -78 -11 -30 -3 -62 -7 -70 -9 -9 -2 -56 -10 -106 -20 -425 -78 -849
-253 -1223 -503 -46 -30 -79 -58 -75 -63 6 -6 1055 -390 1473 -539 58 -21 148
-54 200 -73 348 -129 1179 -430 1199 -435 13 -2 22 -1 20 4 -2 5 -16 34 -30
64 -37 75 -196 416 -491 1050 -137 294 -253 539 -258 544 -7 7 -315 16 -323
10z"/>
<path d="M4069 6718 c48 -106 87 -189 136 -293 26 -55 62 -131 80 -170 100
-217 441 -946 485 -1040 28 -60 61 -130 72 -155 11 -25 52 -111 89 -193 38
-81 83 -178 101 -215 17 -37 57 -123 89 -191 33 -68 59 -125 59 -127 0 -1 29
-65 65 -141 36 -76 73 -155 83 -175 17 -37 32 -49 32 -27 0 10 147 423 185
519 7 19 25 69 40 110 25 70 46 127 65 175 5 11 24 65 44 120 19 55 47 132 61
170 15 39 31 82 35 98 5 15 30 85 55 155 26 70 55 150 65 177 10 28 30 80 44
117 14 36 26 71 26 76 0 17 -236 249 -345 340 -314 263 -686 472 -1070 602
-114 39 -400 113 -482 124 l-42 6 28 -62z"/>
<path d="M1173 5873 c-343 -339 -595 -719 -767 -1157 -43 -107 -113 -323 -122
-372 -2 -13 -9 -35 -14 -49 -5 -14 -7 -25 -5 -25 2 0 1 -10 -4 -23 -5 -13 -12
-39 -15 -58 -3 -19 -10 -58 -16 -88 -5 -30 -9 -55 -8 -57 2 -1 210 94 463 212
253 118 474 221 490 228 17 8 88 42 159 75 70 34 130 61 132 61 2 0 59 27 128
60 69 32 147 69 173 81 26 12 104 48 172 80 68 33 125 59 126 59 2 0 56 25
121 56 66 31 147 69 182 85 34 16 90 42 125 58 34 16 114 53 177 83 63 30 168
79 233 108 65 29 114 57 110 61 -8 7 -1711 629 -1724 629 -4 0 -56 -48 -116
-107z"/>
<path d="M6182 5388 c-8 -24 -24 -70 -37 -103 -24 -62 -109 -296 -111 -305 0
-3 -4 -12 -7 -20 -4 -8 -34 -91 -67 -185 -34 -93 -77 -210 -95 -260 -18 -49
-63 -173 -100 -275 -36 -102 -72 -201 -80 -220 -8 -19 -50 -134 -94 -255 -43
-121 -116 -321 -161 -445 -46 -124 -91 -250 -102 -280 -17 -47 -68 -188 -163
-447 -13 -35 -21 -63 -19 -63 3 0 191 86 366 168 46 22 112 53 148 70 103 48
817 381 900 419 41 20 117 55 168 78 l92 44 1 43 c6 154 -3 441 -15 504 -2 11
-7 44 -10 75 -4 31 -8 65 -10 75 -2 11 -7 39 -11 64 -4 25 -9 54 -11 65 -2 11
-7 34 -10 50 -38 216 -155 548 -278 795 -91 181 -255 450 -275 450 -3 0 -12
-19 -19 -42z"/>
<path d="M1790 4442 c-31 -15 -96 -46 -145 -69 -50 -22 -121 -56 -160 -73 -38
-18 -126 -59 -194 -91 -68 -33 -125 -59 -126 -59 -2 0 -60 -27 -129 -60 -69
-33 -128 -60 -130 -60 -2 0 -59 -27 -127 -59 -68 -32 -187 -88 -264 -124 -77
-36 -184 -85 -237 -111 l-98 -45 -1 -43 c-5 -151 3 -441 15 -503 2 -11 7 -49
11 -85 4 -36 11 -83 15 -105 5 -22 11 -59 15 -82 10 -71 62 -275 101 -394 42
-132 89 -249 163 -412 73 -161 285 -507 301 -491 4 5 49 124 100 264 50 140
95 264 100 275 5 11 75 202 155 425 81 223 150 414 155 425 5 11 77 209 160
440 83 231 155 429 160 440 7 17 68 184 160 440 12 33 32 88 45 123 12 34 20
62 16 61 -3 0 -31 -13 -61 -27z"/>
<path d="M1648 3015 c-3 -6 -17 -42 -31 -80 -14 -39 -111 -306 -217 -595 -105
-289 -213 -586 -240 -660 -26 -74 -69 -190 -94 -258 -25 -68 -46 -126 -46
-130 0 -10 184 -199 251 -258 101 -90 119 -104 202 -168 253 -195 506 -338
802 -456 163 -65 373 -130 500 -156 46 -9 178 -34 181 -34 4 0 -21 58 -84 190
-22 47 -55 119 -75 160 -45 98 -163 351 -217 465 -23 50 -53 113 -65 140 -12
28 -42 91 -65 140 -23 50 -57 122 -75 160 -18 39 -75 162 -128 275 -52 113
-115 248 -140 300 -24 52 -106 228 -182 390 -75 162 -153 329 -172 370 -20 41
-50 106 -67 145 -18 38 -35 65 -38 60z"/>
<path d="M6740 2942 c-104 -49 -279 -131 -470 -220 -118 -55 -264 -123 -325
-152 -60 -28 -126 -59 -145 -67 -19 -9 -86 -40 -148 -70 -63 -29 -115 -53
-117 -53 -2 0 -54 -24 -116 -54 -231 -109 -331 -156 -334 -156 -1 0 -54 -24
-117 -54 -63 -30 -150 -71 -194 -91 -85 -40 -320 -150 -449 -210 -44 -20 -130
-61 -191 -90 -61 -29 -121 -56 -133 -60 -13 -4 -19 -11 -15 -15 5 -4 142 -56
304 -115 162 -59 403 -147 535 -195 132 -48 385 -140 563 -205 l324 -118 41
39 c326 306 561 626 754 1024 117 243 224 580 268 848 3 17 4 32 3 31 -2 0
-19 -8 -38 -17z"/>
<path d="M2532 1843 c2 -5 18 -37 35 -73 16 -36 48 -103 70 -150 22 -47 52
-110 66 -140 14 -30 44 -95 67 -145 23 -49 53 -115 67 -145 14 -30 50 -106 79
-168 30 -63 54 -115 54 -117 0 -1 34 -73 75 -160 41 -86 75 -158 75 -160 0 -1
23 -52 51 -111 29 -60 71 -151 95 -201 35 -77 47 -93 66 -94 147 -6 472 3 533
16 11 2 45 7 75 10 164 17 487 94 670 160 260 94 502 215 723 362 91 60 114
83 85 83 -7 0 -60 18 -118 39 -58 22 -188 69 -290 106 -168 61 -540 196 -810
295 -58 21 -181 66 -275 100 -93 34 -179 65 -190 70 -11 5 -110 41 -220 80
-110 39 -240 87 -290 105 -327 120 -676 245 -685 245 -7 0 -10 -3 -8 -7z"/>
</g>
</svg>
